HIERARCHY
ROOT Hips
{
	OFFSET 0.000000 83.214638 0.000000
	CHANNELS 6 Xposition Yposition Zposition Xrotation Yrotation Zrotation
	JOINT Pelvis
	{
		OFFSET 0.000000 0.000000 0.000000
		CHANNELS 3 Xrotation Yrotation Zrotation
		JOINT LeftUpLeg
		{
			OFFSET 8.479700 -4.795502 -0.379100
			CHANNELS 3 Xrotation Yrotation Zrotation
			JOINT LeftLeg
			{
				OFFSET 0.024144 -32.555107 0.112900
				CHANNELS 3 Xrotation Yrotation Zrotation
				JOINT LeftFoot
				{
					OFFSET -0.024144 -32.638630 -3.012600
					CHANNELS 3 Xrotation Yrotation Zrotation
					JOINT LeftToeBase
					{
						OFFSET 0.970200 -13.225400 11.864200
						CHANNELS 3 Xrotation Yrotation Zrotation
						End Site
						{
							OFFSET 0.000000 12.319262 0.000000
						}
					}
					JOINT LFootTongue
					{
						OFFSET 1.142400 -1.059800 6.665200
						CHANNELS 3 Xrotation Yrotation Zrotation
						End Site
						{
							OFFSET 0.000000 12.319262 0.000000
						}
					}
				}
				JOINT LeftPantLeg
				{
					OFFSET 0.918482 -16.533964 -2.284700
					CHANNELS 3 Xrotation Yrotation Zrotation
					End Site
					{
						OFFSET 0.350399 24.744368 0.000000
					}
				}
			}
		}
		JOINT RightUpLeg
		{
			OFFSET -8.479700 -4.795502 -0.379100
			CHANNELS 3 Xrotation Yrotation Zrotation
			JOINT RightLeg
			{
				OFFSET -0.023144 -32.555092 0.112900
				CHANNELS 3 Xrotation Yrotation Zrotation
				JOINT RightFoot
				{
					OFFSET 0.023144 -32.638641 -3.012700
					CHANNELS 3 Xrotation Yrotation Zrotation
					JOINT RightToeBase
					{
						OFFSET -0.970200 -13.225400 11.864200
						CHANNELS 3 Xrotation Yrotation Zrotation
						End Site
						{
							OFFSET 0.000000 12.319244 0.000000
						}
					}
					JOINT RFootTongue
					{
						OFFSET -1.142200 -1.059800 6.665200
						CHANNELS 3 Xrotation Yrotation Zrotation
						End Site
						{
							OFFSET 0.000000 12.319243 0.000000
						}
					}
				}
				JOINT RightPantLeg
				{
					OFFSET -0.919482 -16.533978 -2.284800
					CHANNELS 3 Xrotation Yrotation Zrotation
					End Site
					{
						OFFSET -0.350400 24.744419 0.000000
					}
				}
			}
		}
	}
	JOINT Spine
	{
		OFFSET 0.000000 7.722000 1.166200
		CHANNELS 3 Xrotation Yrotation Zrotation
		JOINT Spine1
		{
			OFFSET 0.000000 12.024101 0.248800
			CHANNELS 3 Xrotation Yrotation Zrotation
			JOINT Spine2
			{
				OFFSET 0.000000 11.502998 -0.491200
				CHANNELS 3 Xrotation Yrotation Zrotation
				JOINT Neck
				{
					OFFSET 0.000000 18.430702 -3.123100
					CHANNELS 3 Xrotation Yrotation Zrotation
					JOINT Head
					{
						OFFSET 0.000000 9.051102 1.034000
						CHANNELS 3 Xrotation Yrotation Zrotation
						JOINT HairB
						{
							OFFSET 0.208400 24.786102 24.822300
							CHANNELS 3 Xrotation Yrotation Zrotation
							End Site
							{
								OFFSET 0.000000 32.263779 0.000000
							}
						}
						JOINT HairA
						{
							OFFSET -7.081100 24.428299 23.196600
							CHANNELS 3 Xrotation Yrotation Zrotation
							End Site
							{
								OFFSET 0.000000 32.263779 0.000000
							}
						}
						JOINT Hat
						{
							OFFSET 16.728800 15.048294 -15.439601
							CHANNELS 3 Xrotation Yrotation Zrotation
							End Site
							{
								OFFSET 0.000000 32.263779 0.000000
							}
						}
					}
				}
				JOINT LeftShoulder
				{
					OFFSET 6.197800 13.665199 -4.064700
					CHANNELS 3 Xrotation Yrotation Zrotation
					JOINT LeftArm
					{
						OFFSET 7.778100 -0.187103 -1.709300
						CHANNELS 3 Xrotation Yrotation Zrotation
						JOINT LeftForeArm
						{
							OFFSET 22.049376 0.000000 0.000000
							CHANNELS 3 Xrotation Yrotation Zrotation
							JOINT LeftHand
							{
								OFFSET 23.009392 0.000000 0.000000
								CHANNELS 3 Xrotation Yrotation Zrotation
								JOINT LeftHandThumb1
								{
									OFFSET 3.507191 -2.063065 3.133727
									CHANNELS 3 Xrotation Yrotation Zrotation
									JOINT LeftHandThumb2
									{
										OFFSET 3.101337 -1.790558 1.790558
										CHANNELS 3 Xrotation Yrotation Zrotation
										JOINT LeftHandThumb3
										{
											OFFSET 3.058640 -1.765907 1.765906
											CHANNELS 3 Xrotation Yrotation Zrotation
											End Site
											{
												OFFSET -0.415260 3.926476 -0.049563
											}
										}
									}
								}
								JOINT LeftHandIndex1
								{
									OFFSET 11.334419 -0.901459 3.706815
									CHANNELS 3 Xrotation Yrotation Zrotation
									JOINT LeftHandIndex2
									{
										OFFSET 3.283112 0.000000 0.000000
										CHANNELS 3 Xrotation Yrotation Zrotation
										JOINT LeftHandIndex3
										{
											OFFSET 3.323853 0.000000 0.000000
											CHANNELS 3 Xrotation Yrotation Zrotation
											End Site
											{
												OFFSET -1.135597 3.097809 0.402452
											}
										}
									}
								}
								JOINT LeftHandMiddle1
								{
									OFFSET 11.335861 0.000000 0.000000
									CHANNELS 3 Xrotation Yrotation Zrotation
									JOINT LeftHandMiddle2
									{
										OFFSET 3.410492 0.000000 0.000000
										CHANNELS 3 Xrotation Yrotation Zrotation
										JOINT LeftHandMiddle3
										{
											OFFSET 3.312172 0.000000 0.000000
											CHANNELS 3 Xrotation Yrotation Zrotation
											End Site
											{
												OFFSET -1.150200 3.080154 0.400270
											}
										}
									}
								}
								JOINT LeftHandRing1
								{
									OFFSET 11.514786 -0.013176 -3.003090
									CHANNELS 3 Xrotation Yrotation Zrotation
									JOINT LeftHandRing2
									{
										OFFSET 3.053307 0.000000 0.000000
										CHANNELS 3 Xrotation Yrotation Zrotation
										JOINT LeftHandRing3
										{
											OFFSET 3.295807 0.000000 0.000000
											CHANNELS 3 Xrotation Yrotation Zrotation
											End Site
											{
												OFFSET -1.281006 3.013344 0.375733
											}
										}
									}
								}
								JOINT LeftHandPinky1
								{
									OFFSET 10.518692 -0.960396 -5.730441
									CHANNELS 3 Xrotation Yrotation Zrotation
									JOINT LeftHandPinky2
									{
										OFFSET 2.861649 0.000000 0.000000
										CHANNELS 3 Xrotation Yrotation Zrotation
										JOINT LeftHandPinky3
										{
											OFFSET 2.863380 0.000000 0.000000
											CHANNELS 3 Xrotation Yrotation Zrotation
											End Site
											{
												OFFSET -0.843597 2.711159 0.369971
											}
										}
									}
								}
							}
							JOINT LSleeve
							{
								OFFSET 6.676277 -0.344902 -1.011730
								CHANNELS 3 Xrotation Yrotation Zrotation
								End Site
								{
									OFFSET 0.000000 14.885353 0.000000
								}
							}
						}
					}
				}
				JOINT RightShoulder
				{
					OFFSET -6.197800 13.665199 -4.064700
					CHANNELS 3 Xrotation Yrotation Zrotation
					JOINT RightArm
					{
						OFFSET -7.778100 -0.187103 -1.709300
						CHANNELS 3 Xrotation Yrotation Zrotation
						JOINT RightForeArm
						{
							OFFSET -22.049376 0.000000 0.000000
							CHANNELS 3 Xrotation Yrotation Zrotation
							JOINT RightHand
							{
								OFFSET -23.009392 0.000000 0.000000
								CHANNELS 3 Xrotation Yrotation Zrotation
								JOINT RightHandThumb1
								{
									OFFSET -3.507191 -2.063065 3.133727
									CHANNELS 3 Xrotation Yrotation Zrotation
									JOINT RightHandThumb2
									{
										OFFSET -3.101337 -1.790558 1.790558
										CHANNELS 3 Xrotation Yrotation Zrotation
										JOINT RightHandThumb3
										{
											OFFSET -3.058640 -1.765907 1.765906
											CHANNELS 3 Xrotation Yrotation Zrotation
											End Site
											{
												OFFSET 0.415260 3.926476 -0.049563
											}
										}
									}
								}
								JOINT RightHandIndex1
								{
									OFFSET -11.334419 -0.901459 3.706815
									CHANNELS 3 Xrotation Yrotation Zrotation
									JOINT RightHandIndex2
									{
										OFFSET -3.283112 0.000000 0.000000
										CHANNELS 3 Xrotation Yrotation Zrotation
										JOINT RightHandIndex3
										{
											OFFSET -3.323853 0.000000 0.000000
											CHANNELS 3 Xrotation Yrotation Zrotation
											End Site
											{
												OFFSET 1.135597 3.097809 0.402452
											}
										}
									}
								}
								JOINT RightHandMiddle1
								{
									OFFSET -11.335861 0.000000 0.000000
									CHANNELS 3 Xrotation Yrotation Zrotation
									JOINT RightHandMiddle2
									{
										OFFSET -3.410492 0.000000 0.000000
										CHANNELS 3 Xrotation Yrotation Zrotation
										JOINT RightHandMiddle3
										{
											OFFSET -3.312172 0.000000 0.000000
											CHANNELS 3 Xrotation Yrotation Zrotation
											End Site
											{
												OFFSET 1.150200 3.080154 0.400270
											}
										}
									}
								}
								JOINT RightHandRing1
								{
									OFFSET -11.514786 -0.013176 -3.003090
									CHANNELS 3 Xrotation Yrotation Zrotation
									JOINT RightHandRing2
									{
										OFFSET -3.053307 0.000000 0.000000
										CHANNELS 3 Xrotation Yrotation Zrotation
										JOINT RightHandRing3
										{
											OFFSET -3.295807 0.000000 0.000000
											CHANNELS 3 Xrotation Yrotation Zrotation
											End Site
											{
												OFFSET 1.281006 3.013344 0.375733
											}
										}
									}
								}
								JOINT RightHandPinky1
								{
									OFFSET -10.518692 -0.960396 -5.730441
									CHANNELS 3 Xrotation Yrotation Zrotation
									JOINT RightHandPinky2
									{
										OFFSET -2.861649 0.000000 0.000000
										CHANNELS 3 Xrotation Yrotation Zrotation
										JOINT RightHandPinky3
										{
											OFFSET -2.863380 0.000000 0.000000
											CHANNELS 3 Xrotation Yrotation Zrotation
											End Site
											{
												OFFSET 0.843597 2.711159 0.369971
											}
										}
									}
								}
							}
							JOINT RSleeve
							{
								OFFSET -6.676277 -0.344902 -1.011730
								CHANNELS 3 Xrotation Yrotation Zrotation
								End Site
								{
									OFFSET 0.000000 14.885353 0.000000
								}
							}
						}
					}
				}
				JOINT Backpack
				{
					OFFSET 0.000000 -2.471497 36.677502
					CHANNELS 3 Xrotation Yrotation Zrotation
					End Site
					{
						OFFSET 0.000000 20.427315 0.000000
					}
				}
				JOINT Hood
				{
					OFFSET 0.000000 18.754097 -10.431000
					CHANNELS 3 Xrotation Yrotation Zrotation
					JOINT Hood1
					{
						OFFSET 0.000000 -5.011002 -7.685901
						CHANNELS 3 Xrotation Yrotation Zrotation
						End Site
						{
							OFFSET 0.000000 9.175140 0.000000
						}
					}
				}
				JOINT LHoodieString
				{
					OFFSET 5.250500 16.397697 3.089900
					CHANNELS 3 Xrotation Yrotation Zrotation
					JOINT LHoodieString1
					{
						OFFSET 0.257700 -6.364304 3.694600
						CHANNELS 3 Xrotation Yrotation Zrotation
						JOINT LHoodieString2
						{
							OFFSET 0.000000 -9.643799 2.679100
							CHANNELS 3 Xrotation Yrotation Zrotation
							End Site
							{
								OFFSET 0.000000 10.009018 0.000000
							}
						}
					}
				}
				JOINT RHoodieString
				{
					OFFSET -5.250500 16.397697 3.089900
					CHANNELS 3 Xrotation Yrotation Zrotation
					JOINT RHoodieString1
					{
						OFFSET -0.257700 -6.364304 3.694600
						CHANNELS 3 Xrotation Yrotation Zrotation
						JOINT RHoodieString2
						{
							OFFSET 0.000000 -9.643799 2.679100
							CHANNELS 3 Xrotation Yrotation Zrotation
							End Site
							{
								OFFSET 0.000000 10.009018 0.000000
							}
						}
					}
				}
			}
			JOINT LBackpack_Strap
			{
				OFFSET 15.223200 -7.719803 -6.610900
				CHANNELS 3 Xrotation Yrotation Zrotation
				End Site
				{
					OFFSET 0.000000 16.040596 0.000000
				}
			}
			JOINT RBackpack_Strap
			{
				OFFSET -15.223000 -7.719803 -6.610900
				CHANNELS 3 Xrotation Yrotation Zrotation
				End Site
				{
					OFFSET 0.000000 16.040596 0.000000
				}
			}
		}
	}
	JOINT BoyFacialAnim_Joint
	{
		OFFSET 1.000000 -82.208099 -1.550900
		CHANNELS 3 Xrotation Yrotation Zrotation
		End Site
		{
			OFFSET 0.000000 30.012791 0.000000
		}
	}
}
MOTION
Frames: 4
Frame Time: 0.033333
0.617469 75.030403 4.100898 0.515001 -1.057647 -0.647170 -0.000000 -0.000000 -0.000000 -29.731827 2.583206 24.910859 42.813268 -5.683238 -9.869669 -13.727698 -4.505561 -8.888998 -0.000000 0.000000 -0.000000 -0.000000 0.000000 -0.000000 -0.000001 -0.000001 -0.000001 -34.112123 -13.780449 -22.052133 42.553632 6.489066 -3.886739 -11.505849 3.945741 14.348566 0.000000 0.000000 0.000000 0.000000 0.000000 0.000000 -0.000001 -0.000000 0.000001 11.562510 1.183075 -0.791529 0.734595 3.621559 -0.850897 2.773586 3.399696 -1.126495 -1.108261 3.560848 -12.088649 -9.502280 1.718868 -0.490839 -0.000000 -0.000001 -0.000001 -0.000000 -0.000001 -0.000001 -0.000000 -0.000001 -0.000001 -3.264198 10.432552 24.847905 -72.137214 56.012667 7.417497 -4.672725 -41.833181 -17.053584 -56.857940 -21.804949 -19.195705 36.774544 8.584276 -16.863126 2.295277 23.044181 15.130537 0.000001 -0.000000 -0.000001 0.652345 9.453948 -24.543699 0.393118 2.026189 -21.957649 -0.000001 -0.000001 -0.000005 0.652335 9.453945 -24.543694 0.393114 2.026200 -21.957661 0.000003 -0.000003 -0.000004 0.652292 9.453784 -24.541988 0.393042 2.026041 -21.955952 -0.000001 -0.000001 -0.000002 0.643639 9.449205 -24.541274 0.384718 2.021083 -21.956394 0.000001 0.000003 -0.000001 0.000003 -0.000001 -0.000001 -2.543661 -15.089510 -24.362021 20.308384 -61.764274 53.537864 -15.613814 49.335300 11.834821 -94.154233 -0.974793 -14.003303 -16.848571 10.764376 47.837388 1.449750 1.360986 -14.491298 0.000002 -0.000000 -0.000001 49.055173 2.567606 -15.685661 -0.547467 11.915459 11.701471 0.000000 -0.000000 -0.000000 33.704323 18.577117 -17.325506 -0.345238 -1.018031 10.730086 -0.000000 0.000000 -0.000002 21.169318 20.483638 -14.326675 -11.502243 -3.267279 10.921191 0.000001 -0.000001 0.000007 10.596449 -31.962775 27.520611 -0.001648 -0.012491 0.212549 -0.000000 -0.000000 0.000000 -0.000001 0.000001 0.000001 -0.000001 -0.000000 -0.000000 -0.000001 -0.000000 -0.000000 -0.000001 -0.000000 -0.000000 -0.000001 -0.000000 -0.000000 -0.000001 -0.000000 -0.000000 -0.000001 -0.000000 -0.000000 -0.000001 -0.000000 -0.000000 -0.000001 -0.000000 -0.000000 -0.000001 -0.000000 -0.000000 0.000000 0.000000 -0.000000 0.000000 0.000000 -0.000000 -0.000000 -0.000000 -0.000000 
0.642461 75.017616 4.029200 0.540027 -1.118547 -0.675246 0.000000 0.000000 0.000000 -29.843610 2.569177 24.946144 42.884395 -5.697420 -9.894329 -13.704080 -4.469875 -8.848741 0.000000 -0.000000 -0.000000 0.000000 -0.000000 0.000000 0.000001 -0.000000 -0.000001 -34.214436 -13.757367 -22.033103 42.537353 6.470376 -3.867623 -11.413845 4.015168 14.338879 -0.000000 -0.000000 0.000000 -0.000000 -0.000000 0.000000 -0.000002 0.000002 -0.000000 11.582975 1.199708 -0.826727 0.791350 3.672047 -0.876101 2.833907 3.447476 -1.157487 -0.886007 3.359678 -12.041989 -9.663539 1.850767 -0.668237 0.000000 0.000001 0.000001 0.000000 0.000001 0.000001 0.000000 0.000001 0.000001 -3.170941 10.154599 24.846447 -72.075899 56.110025 7.954486 -4.874487 -41.717231 -17.252044 -56.851216 -21.774991 -19.202488 36.774541 8.584276 -16.863124 2.295278 23.044179 15.130537 0.000002 -0.000001 0.000002 0.652345 9.453946 -24.543699 0.393119 2.026196 -21.957646 -0.000001 -0.000003 -0.000006 0.652335 9.453943 -24.543694 0.393114 2.026194 -21.957663 0.000002 -0.000002 0.000002 0.652293 9.453785 -24.541988 0.393040 2.026045 -21.955947 0.000003 -0.000004 -0.000001 0.643639 9.449196 -24.541276 0.384716 2.021084 -21.956391 -0.000001 0.000003 0.000002 0.000001 -0.000001 0.000001 -2.277796 -14.762322 -24.064580 17.136564 -61.934250 50.566541 -15.370724 49.279354 11.597735 -92.092165 -1.661671 -13.425568 -16.880309 10.816407 47.878902 1.664069 1.856307 -14.288590 -0.000001 0.000000 -0.000002 49.387110 1.923803 -16.312112 -0.771672 11.848698 12.295778 0.000001 -0.000001 0.000003 34.268145 18.120406 -18.140059 -0.436401 -1.082060 11.312075 -0.000000 0.000002 -0.000007 21.793211 20.205187 -15.237180 -11.571286 -3.442575 11.480709 -0.000000 0.000002 0.000002 11.627247 -31.977474 29.120484 -0.001574 0.007587 0.000715 -0.000002 -0.000000 -0.000003 -0.000001 -0.000001 -0.000000 0.000001 0.000000 -0.000000 0.000001 0.000000 -0.000000 0.000001 0.000000 -0.000000 0.000001 0.000000 -0.000000 0.000001 0.000000 -0.000000 -0.000001 -0.000001 -0.000000 0.000001 0.000000 -0.000000 0.000001 0.000000 -0.000000 -0.000001 -0.000001 -0.000000 -0.000000 -0.000000 0.000000 -0.000000 -0.000000 0.000000 0.000000 0.000000 0.000000 
0.661242 75.004227 3.941325 0.566478 -1.135711 -0.702256 0.000000 -0.000000 -0.000000 -29.985391 2.551202 24.977329 42.946583 -5.701798 -9.910240 -13.649663 -4.489376 -8.814450 0.000000 -0.000000 -0.000000 0.000000 -0.000000 -0.000000 -0.000001 0.000001 0.000000 -34.323616 -13.741470 -22.027712 42.530273 6.451112 -3.831292 -11.318128 4.057041 14.315389 0.000000 0.000000 0.000000 0.000000 0.000000 0.000000 -0.000001 -0.000002 0.000000 11.608134 1.213547 -0.862906 0.864240 3.710589 -0.903149 2.904148 3.483149 -1.191297 -0.677812 3.164948 -11.995753 -9.914906 1.974579 -0.846821 -0.000000 0.000000 0.000000 -0.000000 0.000000 0.000000 -0.000000 0.000000 0.000000 -3.053911 9.852247 24.791275 -72.057710 55.975955 8.473043 -5.046580 -41.690396 -17.430969 -56.813558 -21.731642 -19.142003 36.774541 8.584275 -16.863126 2.295277 23.044184 15.130537 0.000000 -0.000000 -0.000000 0.652343 9.453947 -24.543699 0.393118 2.026197 -21.957649 -0.000003 -0.000001 -0.000000 0.652335 9.453947 -24.543696 0.393111 2.026201 -21.957663 0.000002 -0.000000 -0.000003 0.652293 9.453779 -24.541986 0.393040 2.026048 -21.955950 -0.000002 0.000003 0.000002 0.643637 9.449202 -24.541273 0.384713 2.021088 -21.956394 -0.000001 0.000002 0.000005 0.000002 0.000000 0.000001 -1.977912 -14.365213 -23.757782 13.569668 -62.057514 47.248725 -15.046784 49.288861 11.293710 -89.655098 -2.483925 -12.325118 -16.934394 10.894276 47.941815 1.905753 2.328689 -14.072713 0.000000 -0.000002 0.000000 49.695510 1.278797 -16.998826 -1.013127 11.770974 12.947539 -0.000000 -0.000001 0.000005 34.825362 17.674981 -19.012211 -0.531983 -1.155222 11.950674 0.000000 0.000000 -0.000000 22.413744 19.949041 -16.202254 -11.641477 -3.637555 12.094269 -0.000001 0.000002 0.000001 12.598354 -31.947636 30.613833 -0.001401 0.007612 0.000712 0.000000 0.000002 0.000002 -0.000002 0.000001 0.000001 0.000000 -0.000001 -0.000000 0.000000 -0.000001 -0.000000 0.000000 -0.000001 -0.000000 0.000000 -0.000001 -0.000000 0.000000 -0.000001 0.000000 0.000000 0.000000 -0.000000 0.000000 -0.000001 -0.000000 0.000000 -0.000001 0.000000 0.000000 0.000000 -0.000000 0.000000 -0.000000 -0.000000 0.000000 -0.000000 -0.000000 0.000000 -0.000000 -0.000000 
0.670404 74.997208 3.840831 0.595677 -1.103417 -0.713112 0.000000 -0.000000 -0.000000 -30.131902 2.525056 24.974061 42.962095 -5.694050 -9.909600 -13.551269 -4.539283 -8.792144 -0.000000 -0.000000 -0.000000 -0.000000 -0.000000 -0.000000 0.000001 0.000000 -0.000000 -34.431667 -13.734229 -22.045954 42.516381 6.430618 -3.781941 -11.216311 4.069868 14.279865 0.000000 -0.000000 0.000000 0.000000 -0.000000 0.000000 0.000000 0.000002 -0.000001 11.639717 1.220081 -0.894785 0.953050 3.728162 -0.928078 2.983689 3.497352 -1.222049 -0.472979 2.989031 -11.983041 -10.234578 2.059155 -0.968227 -0.000000 0.000001 0.000000 -0.000000 0.000001 0.000000 -0.000000 0.000001 0.000000 -2.926812 9.572692 24.674045 -72.170893 55.539396 8.898943 -5.050480 -41.718509 -17.440340 -56.759586 -21.671972 -19.069139 36.774548 8.584271 -16.863124 2.295282 23.044184 15.130539 0.000002 -0.000001 0.000001 0.652343 9.453942 -24.543699 0.393113 2.026200 -21.957646 0.000000 0.000004 -0.000003 0.652335 9.453939 -24.543694 0.393112 2.026196 -21.957660 0.000002 -0.000001 0.000002 0.652291 9.453774 -24.541990 0.393038 2.026043 -21.955945 0.000000 0.000005 -0.000001 0.643638 9.449199 -24.541276 0.384718 2.021077 -21.956393 0.000002 -0.000003 -0.000001 0.000003 -0.000000 0.000000 -1.666488 -13.926032 -23.467058 9.985262 -62.023199 43.897943 -14.559448 49.431568 10.886417 -87.164504 -3.245006 -10.698414 -17.004039 10.998787 48.026236 2.168008 2.784690 -13.841041 -0.000001 -0.000000 -0.000001 49.978120 0.637279 -17.741505 -1.269698 11.681711 13.653453 -0.000001 0.000002 0.000005 35.372795 17.243473 -19.936125 -0.630650 -1.237741 12.642849 -0.000000 0.000000 -0.000000 23.027783 19.716500 -17.215719 -11.711181 -3.851709 12.758899 0.000000 0.000001 0.000000 13.436539 -31.897277 31.837144 -0.001251 0.006284 0.015102 0.000001 -0.000002 0.000002 -0.000000 -0.000001 -0.000000 0.000001 -0.000000 0.000000 0.000001 -0.000000 0.000000 0.000001 -0.000000 0.000000 0.000001 -0.000000 0.000000 0.000001 -0.000000 0.000000 -0.000000 -0.000000 0.000000 0.000001 -0.000000 0.000000 0.000001 -0.000000 0.000000 -0.000000 -0.000000 0.000000 -0.000001 -0.000000 0.000000 -0.000001 -0.000000 0.000000 0.000000 -0.000000 -0.000000 
